<?xml version="1.0" encoding="UTF-8" standalone="no"?>
<!-- Created with Inkscape (http://www.inkscape.org/) -->

<svg
   width="37mm"
   height="37mm"
   viewBox="0 0 37 37"
   version="1.1"
   id="svg1"
   inkscape:version="1.4.2 (ebf0e940d0, 2025-05-08)"
   sodipodi:docname="logo.svg"
   inkscape:export-filename="logo.png"
   inkscape:export-xdpi="300"
   inkscape:export-ydpi="300"
   xmlns:inkscape="http://www.inkscape.org/namespaces/inkscape"
   xmlns:sodipodi="http://sodipodi.sourceforge.net/DTD/sodipodi-0.dtd"
   xmlns="http://www.w3.org/2000/svg"
   xmlns:svg="http://www.w3.org/2000/svg">
  <sodipodi:namedview
     id="namedview1"
     pagecolor="#ffffff"
     bordercolor="#000000"
     borderopacity="0.25"
     inkscape:showpageshadow="2"
     inkscape:pageopacity="0.0"
     inkscape:pagecheckerboard="0"
     inkscape:deskcolor="#d1d1d1"
     inkscape:document-units="mm"
     inkscape:zoom="2.5801858"
     inkscape:cx="151.34569"
     inkscape:cy="96.117109"
     inkscape:window-width="3840"
     inkscape:window-height="2086"
     inkscape:window-x="20"
     inkscape:window-y="20"
     inkscape:window-maximized="0"
     inkscape:current-layer="layer1"
     inkscape:export-bgcolor="#ffffffff" />
  <defs
     id="defs1">
	
	
	
	
	
	
</defs>
  <g
     inkscape:label="Layer 1"
     inkscape:groupmode="layer"
     id="layer1">
    <path
       style="fill:#231f20;stroke-width:0.264583"
       d="m 30.768845,35.013111 c 2.15794,0 3.90683,-1.75075 3.90683,-3.90684 V 6.2293501 c 0,-2.155821 -1.74863,-3.906833 -3.90683,-3.906833 H 5.8916587 c -2.157942,0 -3.904721,1.750748 -3.904721,3.906833 V 31.106271 c 0,2.15583 1.746779,3.90684 3.904721,3.90684 z"
       id="path1" />
    <path
       style="fill:#ffffff;stroke-width:0.264583"
       d="m 5.8916587,2.9800061 c -1.788054,0 -3.243263,1.461294 -3.243263,3.249344 V 31.106271 c 0,1.78806 1.455209,3.24115 3.243263,3.24115 H 30.768575 c 1.78806,0 3.24115,-1.45309 3.24115,-3.24115 V 6.2293501 c 0,-1.78805 -1.45309,-3.249344 -3.24115,-3.249344 z"
       id="path2" />
    <path
       style="fill:#4f48e3;fill-opacity:1;stroke-width:0.217996"
       d="m 29.279885,27.467691 c -0.46324,0 -0.91623,-0.10725 -1.31473,-0.28775 -0.41049,-0.1925 -0.873728,-0.30323 -1.357468,-0.30323 -0.478497,0 -0.941741,0.11073 -1.352229,0.30323 -0.40373,0.1805 -0.851494,0.28775 -1.319969,0.28775 -0.468474,0 -0.914496,-0.10725 -1.314737,-0.28775 -0.408744,-0.1925 -0.871986,-0.30323 -1.357464,-0.30323 -0.478503,0 -0.941745,0.11073 -1.355721,0.30323 -0.400242,0.1805 -0.84648,0.28775 -1.314737,0.28775 -0.468257,0 -0.91624,-0.10725 -1.316481,-0.28775 -0.412232,-0.1925 -0.87373,-0.30323 -1.357464,-0.30323 -0.481991,0 -0.941745,0.11073 -1.353977,0.30323 -0.401986,0.1805 -0.84975,0.28775 -1.318225,0.28775 -0.468474,0 -0.914496,-0.10725 -1.316481,-0.28775 -0.410488,-0.1925 -0.87373,-0.30323 -1.353976,-0.30323 -0.485478,0 -0.9452343,0.11073 -1.3557213,0.30323 -0.401986,0.1805 -0.848224,0.28775 -1.316481,0.28775 v -1.97548 c 0.468257,0 0.914495,-0.10551 1.316481,-0.28602 0.410487,-0.18725 0.8702433,-0.29799 1.3557213,-0.29799 0.480246,0 0.943488,0.11074 1.353976,0.29799 0.401985,0.18051 0.848224,0.28602 1.316481,0.28602 0.468256,0 0.916239,-0.10551 1.318225,-0.28602 0.412232,-0.18725 0.871986,-0.29799 1.353977,-0.29799 0.483734,0 0.945232,0.11074 1.357464,0.29799 0.400241,0.18051 0.848224,0.28602 1.316481,0.28602 0.468257,0 0.914495,-0.10551 1.314737,-0.28602 0.413757,-0.18725 0.877,-0.29799 1.355721,-0.29799 0.485478,0 0.94872,0.11074 1.357464,0.29799 0.400241,0.18051 0.84648,0.28602 1.314737,0.28602 0.468256,0 0.916239,-0.10551 1.319969,-0.28602 0.410488,-0.18725 0.873732,-0.29799 1.352229,-0.29799 0.48374,0 0.946978,0.11074 1.357468,0.29799 0.3985,0.18051 0.85149,0.28602 1.31473,0.28602 z"
       id="path3" />
    <path
       style="fill:#231f20;stroke-width:0.217996"
       d="m 10.198438,16.046641 c 0.715247,0 1.295989,-0.58074 1.295989,-1.29447 0,-0.71372 -0.580742,-1.29272 -1.295989,-1.29272 -0.7135033,0 -1.2944643,0.579 -1.2944643,1.29272 0,0.71373 0.580743,1.29447 1.2944643,1.29447 z"
       id="path4" />
    <path
       style="fill:#231f20;stroke-width:0.217996"
       d="m 15.890109,21.915541 h -3.704197 c -0.544991,0 -1.020224,-0.3235 -1.232988,-0.79198 l -1.3692363,-3.1252 c -0.02725,-0.10551 -0.04098,-0.21298 -0.04098,-0.32351 0,-0.75099 0.6079923,-1.35746 1.3557203,-1.35746 l 3.009443,-0.005 2.064208,-0.93673 c 0.03227,-0.0222 0.117501,-0.0425 0.207751,-0.0425 0.354244,0 0.643744,0.29299 0.643744,0.64375 0,0.218 -0.110743,0.41551 -0.275984,0.53147 l -2.246454,1.01151 c -0.148238,0.1175 -0.430979,0.13276 -0.430979,0.13276 h -1.352233 l 1.134236,2.51721 h 2.503472 v 0 c 0.24699,0 0.420734,0.0852 0.572242,0.21974 l 2.454204,2.32994 v 0 c 0.340511,0.32024 0.362746,0.85673 0.04425,1.20247 -0.32525,0.34051 -0.863483,0.36275 -1.203995,0.0442 v 0 z"
       id="path5" />
    <path
       style="fill:#4f48e3;fill-opacity:1;stroke-width:0.217996"
       d="m 27.431935,17.685101 c 0.0477,0.08 0.16524,0.11249 0.2725,0.11249 0.20774,0 0.378,-0.17026 0.378,-0.38324 0,-0.10224 -0.0495,-0.1925 -0.097,-0.27751 -2.314467,-4.41792 -8.563119,-3.10319 -9.329377,-2.81543 -0.127746,0.0478 -0.202737,0.19249 -0.202737,0.3355 0,0.20775 0.170255,0.378 0.378006,0.378 0.06474,0 0.09548,-0.005 0.149982,-0.0222 6.131153,-1.37752 8.127128,2.11369 8.450636,2.67241 z m 1.06448,0.39849 -7.839375,4.94569 -7.135899,-18.2299579 c 6.386644,0.84648 14.507014,5.8076479 14.975274,13.2842679 z"
       id="path6" />
    <text
       xml:space="preserve"
       style="font-weight:500;font-size:7.05556px;line-height:7.67773px;font-family:'3270Narrow Nerd Font';-inkscape-font-specification:'3270Narrow Nerd Font Medium';text-align:center;word-spacing:0px;writing-mode:lr-tb;direction:ltr;text-anchor:middle;fill:#000000;fill-opacity:1;stroke-width:0.264583"
       x="18.840097"
       y="33.421848"
       id="text1"><tspan
         sodipodi:role="line"
         id="tspan1"
         style="font-style:normal;font-variant:normal;font-weight:bold;font-stretch:condensed;font-family:Amatic;-inkscape-font-specification:'Amatic Bold Condensed';fill:#000000;fill-opacity:1;stroke-width:0.264583"
         x="18.840097"
         y="33.421848">TEXTSURF</tspan></text>
    <text
       xml:space="preserve"
       style="font-style:normal;font-variant:normal;font-weight:bold;font-stretch:condensed;font-size:4.58577px;line-height:4.99015px;font-family:Amatic;-inkscape-font-specification:'Amatic Bold Condensed';text-align:center;word-spacing:0px;writing-mode:lr-tb;direction:ltr;text-anchor:middle;fill:#000000;fill-opacity:1;stroke-width:0.171966"
       x="22.390762"
       y="19.113552"
       id="text2"
       transform="scale(0.99397353,1.006063)"><tspan
         sodipodi:role="line"
         id="tspan2"
         style="font-style:normal;font-variant:normal;font-weight:normal;font-stretch:normal;font-family:Monospace;-inkscape-font-specification:Monospace;fill:#ffffff;stroke-width:0.171966"
         x="22.390762"
         y="19.113552">文</tspan></text>
  </g>
</svg>
